<svg width="96" height="65" viewBox="0 0 96 65" fill="none" xmlns="http://www.w3.org/2000/svg">
<path d="M87.2 27.9066C84.5945 25.9503 81.5579 24.6447 78.3438 24.0986V23.8266C78.3494 18.7547 76.7317 13.8136 73.7265 9.72382C70.7212 5.63406 66.4857 2.60955 61.6374 1.09131C56.7891 -0.426917 51.5818 -0.359459 46.7746 1.28385C41.9675 2.92716 37.812 6.06038 34.9141 10.2266H34.0625C30.0968 10.2288 26.2561 11.6123 23.2029 14.1385C20.1497 16.6647 18.0754 20.1752 17.3378 24.0646C14.0095 24.5594 10.8589 25.8804 8.175 27.9066C4.74342 30.4756 2.20861 34.0571 0.92963 38.144C-0.349352 42.2308 -0.307665 46.6158 1.04879 50.6777C2.40524 54.7395 5.00768 58.2724 8.48748 60.7759C11.9673 63.2794 16.148 64.6266 20.4375 64.6266H74.9375C79.227 64.6266 83.4077 63.2794 86.8875 60.7759C90.3673 58.2724 92.9698 54.7395 94.3262 50.6777C95.6827 46.6158 95.7243 42.2308 94.4454 38.144C93.1664 34.0571 90.6316 30.4756 87.2 27.9066ZM74.9375 57.8266H20.4375C17.5779 57.8266 14.7907 56.9285 12.4708 55.2595C10.151 53.5905 8.41599 51.2352 7.51169 48.5273C6.60739 45.8194 6.5796 42.8961 7.43225 40.1715C8.28491 37.447 9.97478 35.0593 12.2625 33.3466C14.6209 31.581 17.4895 30.6266 20.4375 30.6266C21.3409 30.6266 22.2073 30.2684 22.8461 29.6308C23.4849 28.9932 23.8438 28.1283 23.8438 27.2266C23.8438 24.5214 24.9204 21.927 26.8368 20.0141C28.7531 18.1012 31.3523 17.0266 34.0625 17.0266C34.7489 17.0259 35.4336 17.0943 36.1063 17.2306C36.3444 17.2475 36.5834 17.2475 36.8216 17.2306C37.043 17.1823 37.2596 17.114 37.4688 17.0266C37.664 16.9827 37.849 16.902 38.0137 16.7886C38.2279 16.7075 38.4333 16.6049 38.6269 16.4826C38.7778 16.373 38.9052 16.2342 39.0016 16.0746C39.2066 15.9155 39.3799 15.7195 39.5125 15.4966C41.323 12.1464 44.2076 9.49964 47.7043 7.98032C51.2009 6.461 55.1072 6.15702 58.7975 7.11708C62.4877 8.07714 65.7484 10.2457 68.0573 13.2754C70.3661 16.305 71.5894 20.0205 71.5312 23.8266C71.538 24.7726 71.4582 25.7172 71.2928 26.6486C71.2928 26.6486 71.2928 26.6486 71.2928 26.8186C71.2757 27.045 71.2757 27.2723 71.2928 27.4986C71.2928 27.7026 71.2928 27.9406 71.2928 28.1446C71.2928 28.3486 71.2928 28.1446 71.2928 28.3146C71.3698 28.5025 71.4609 28.6844 71.5653 28.8586C71.5653 28.8586 71.5653 29.1306 71.8037 29.2666C72.0045 29.5181 72.2331 29.7462 72.485 29.9466H72.6894C73.0554 30.1745 73.4591 30.3356 73.8816 30.4226H74.4947H74.9716C77.8613 30.459 80.6645 31.4115 82.9762 33.1426C85.3413 34.8207 87.1079 37.2087 88.0187 39.9587C88.9294 42.7088 88.9368 45.6772 88.0397 48.4318C87.1427 51.1863 85.388 53.583 83.0314 55.2728C80.6747 56.9627 77.8391 57.8574 74.9375 57.8266Z" fill="#16CEF6"/>
<path d="M58.8941 28.2126L47.6875 39.4326L43.2935 35.0126C42.9759 34.6956 42.5988 34.4441 42.1839 34.2725C41.7689 34.101 41.3242 34.0127 40.875 34.0127C40.4259 34.0127 39.9811 34.101 39.5662 34.2725C39.1512 34.4441 38.7742 34.6956 38.4566 35.0126C38.139 35.3296 37.8871 35.7059 37.7152 36.1201C37.5433 36.5343 37.4548 36.9782 37.4548 37.4266C37.4548 37.8749 37.5433 38.3188 37.7152 38.733C37.8871 39.1472 38.139 39.5236 38.4566 39.8406L45.2691 46.6406C45.5857 46.9592 45.9625 47.2122 46.3776 47.3848C46.7926 47.5574 47.2379 47.6463 47.6875 47.6463C48.1372 47.6463 48.5824 47.5574 48.9975 47.3848C49.4126 47.2122 49.7893 46.9592 50.106 46.6406L63.731 33.0406C64.0502 32.7245 64.3036 32.3484 64.4766 31.9341C64.6495 31.5198 64.7385 31.0754 64.7385 30.6266C64.7385 30.1777 64.6495 29.7333 64.4766 29.319C64.3036 28.9047 64.0502 28.5286 63.731 28.2126C63.4143 27.8939 63.0376 27.6409 62.6225 27.4683C62.2074 27.2957 61.7622 27.2068 61.3125 27.2068C60.8629 27.2068 60.4176 27.2957 60.0026 27.4683C59.5875 27.6409 59.2107 27.8939 58.8941 28.2126Z" fill="#16CEF6"/>
</svg>
