<svg width="31" height="30" viewBox="0 0 31 30" fill="none" xmlns="http://www.w3.org/2000/svg">
<path fill-rule="evenodd" clip-rule="evenodd" d="M15.75 0C11.6094 0 8.07423 1.46483 5.14453 4.39453C2.21483 7.32423 0.75 10.8594 0.75 15C0.75 19.1406 2.21483 22.6758 5.14453 25.6055C8.07423 28.5352 11.6094 30 15.75 30C19.8906 30 23.4258 28.5352 26.3555 25.6055C29.2852 22.6758 30.75 19.1406 30.75 15C30.75 10.8594 29.2852 7.32423 26.3555 4.39453C23.4258 1.46483 19.8906 0 15.75 0ZM19.6172 15H17.1562V24.0234H13.8164V15H11.5312V11.8945H13.8164V10.0781C13.8164 8.71093 14.0703 7.68555 14.5781 7.00195C15.0859 6.31836 16.043 5.97656 17.4492 5.97656H19.9102V9.08203H18.3867C17.8398 9.08203 17.498 9.17969 17.3613 9.375C17.2246 9.57031 17.1562 9.90234 17.1562 10.3711V11.8945H19.9687L19.6172 15Z" fill="white"/>
</svg>
