<svg width="92" height="95" viewBox="0 0 92 95" fill="none" xmlns="http://www.w3.org/2000/svg">
<path d="M91.0785 55.7L79.6785 40.9V40.8C79.4785 40.5 79.0785 40.2 78.6785 40.1L61.1785 34C64.3785 30.4 66.2785 25.7 66.2785 20.5C66.2785 9.2 57.0785 0 45.7785 0C34.4785 0 25.2785 9.2 25.2785 20.5C25.2785 25.7 27.1785 30.4 30.3785 34L12.8785 40.1C12.4785 40.2 12.1785 40.5 11.8785 40.8L0.478461 55.7C0.0784607 56.2 -0.121539 57 0.078461 57.6C0.278461 58.3 0.778461 58.8 1.47846 59L11.3785 62.5V81.5C11.3785 82.4 11.9785 83.2 12.7785 83.5L44.9785 94.8C45.1785 94.9 45.4785 94.9 45.6785 94.9C45.8785 94.9 46.1785 94.9 46.3785 94.8L78.5785 83.5C79.4785 83.2 79.9785 82.4 79.9785 81.5V62.5L89.8785 59C90.5785 58.8 91.0785 58.2 91.2785 57.6C91.5785 56.9 91.4785 56.2 91.0785 55.7ZM29.5785 20.5C29.5785 11.6 36.8785 4.3 45.7785 4.3C54.6785 4.3 61.9785 11.6 61.9785 20.5C61.9785 29.4 54.6785 36.7 45.7785 36.7C36.8785 36.7 29.5785 29.5 29.5785 20.5ZM5.77846 55.9L14.3785 44.7L43.3785 54.9L37.4785 67.1L5.77846 55.9ZM43.5785 89.8L15.7785 80V64L37.9785 71.8C38.1785 71.9 38.4785 71.9 38.6785 71.9C39.4785 71.9 40.2785 71.4 40.5785 70.7L43.5785 64.4V89.8ZM45.7785 51.2L20.0785 42.2L33.9785 37.3C37.2785 39.7 41.3785 41 45.7785 41C50.1785 41 54.1785 39.6 57.5785 37.3L71.4785 42.2L45.7785 51.2ZM75.7785 80L47.8785 89.8V64.4L50.8785 70.7C51.2785 71.5 51.9785 71.9 52.7785 71.9C52.9785 71.9 53.2785 71.9 53.4785 71.8L75.7785 64V80ZM53.9785 67.1L48.0785 54.9L77.0785 44.7L85.7785 55.9L53.9785 67.1Z" fill="#16CEF6"/>
<path d="M42.5784 26.5C42.9784 26.9 43.5784 27.2 44.1784 27.2C44.7784 27.2 45.3784 27 45.7784 26.5L54.2784 17.6C55.0784 16.7 55.0784 15.4 54.1784 14.6C53.2784 13.8 51.9784 13.8 51.1784 14.7L44.2784 22L40.5784 18.2C39.7784 17.3 38.3784 17.3 37.5784 18.1C36.6784 18.9 36.6784 20.3 37.4784 21.1L42.5784 26.5Z" fill="#16CEF6"/>
</svg>
