<svg width="75" height="66" viewBox="0 0 75 66" fill="none" xmlns="http://www.w3.org/2000/svg">
<path d="M1.875 65.945H16.875C17.9062 65.945 18.75 65.1012 18.75 64.07V41.57C18.75 40.5387 17.9062 39.695 16.875 39.695H1.875C0.84375 39.695 0 40.5387 0 41.57V64.07C0 65.1012 0.84375 65.945 1.875 65.945ZM3.75 43.445H15V62.195H3.75V43.445Z" fill="#16CEF6"/>
<path d="M28.125 26.57V64.07C28.125 65.1013 28.9688 65.945 30 65.945H45C46.0312 65.945 46.875 65.1013 46.875 64.07V26.57C46.875 25.5388 46.0312 24.695 45 24.695H30C28.9688 24.695 28.125 25.5388 28.125 26.57ZM31.875 28.445H43.125V62.195H31.875V28.445Z" fill="#16CEF6"/>
<path d="M58.125 65.945H73.125C74.1562 65.945 75 65.1012 75 64.07V11.57C75 10.5387 74.1562 9.69498 73.125 9.69498H58.125C57.0938 9.69498 56.25 10.5387 56.25 11.57V64.07C56.25 65.1012 57.0938 65.945 58.125 65.945ZM60 13.445H71.25V62.195H60V13.445Z" fill="#16CEF6"/>
<path d="M16.7436 22.22C17.0998 22.22 17.4373 22.1262 17.7561 21.92L39.1686 8.11996L37.8748 14.0637C37.6498 15.0762 38.3061 16.07 39.3186 16.295C39.4498 16.3325 39.5811 16.3325 39.7123 16.3325C40.5748 16.3325 41.3623 15.7325 41.5498 14.8512L43.7998 4.48246C43.7998 4.46371 43.7998 4.44496 43.7998 4.40746C43.8373 4.18247 43.8561 3.97621 43.8186 3.75121V3.73246C43.7811 3.52621 43.6873 3.33871 43.5936 3.15121C43.5561 3.09496 43.5186 3.05747 43.4811 3.00121C43.3873 2.86997 43.2748 2.75746 43.1623 2.66371C43.1061 2.62621 43.0686 2.58871 43.0123 2.55121C42.8248 2.43871 42.6373 2.34496 42.4123 2.28871C42.4123 2.28871 42.4123 2.28871 42.3936 2.28871L32.0248 0.0387152C31.0311 -0.167535 30.0186 0.469964 29.7936 1.48246C29.5686 2.49496 30.2248 3.48872 31.2373 3.71372L37.1811 5.00746L15.7686 18.8075C14.9061 19.37 14.6436 20.5325 15.2061 21.395C15.5248 21.92 16.1436 22.22 16.7436 22.22Z" fill="#16CEF6"/>
</svg>
