<svg width="30" height="30" viewBox="0 0 30 30" fill="none" xmlns="http://www.w3.org/2000/svg">
<path fill-rule="evenodd" clip-rule="evenodd" d="M15 0C10.8594 0 7.32423 1.46483 4.39453 4.39453C1.46483 7.32423 0 10.8594 0 15C0 19.1406 1.46483 22.6758 4.39453 25.6055C7.32423 28.5352 10.8594 30 15 30C19.1406 30 22.6758 28.5352 25.6055 25.6055C28.5352 22.6758 30 19.1406 30 15C30 10.8594 28.5352 7.32423 25.6055 4.39453C22.6758 1.46483 19.1406 0 15 0ZM24.375 23.6719C24.375 23.8672 24.3066 24.0332 24.1699 24.1699C24.0332 24.3066 23.8672 24.375 23.6719 24.375H6.32812C6.13281 24.375 5.9668 24.3066 5.83008 24.1699C5.69336 24.0332 5.625 23.8672 5.625 23.6719V6.32812C5.625 6.13281 5.69336 5.9668 5.83008 5.83008C5.9668 5.69336 6.13281 5.625 6.32812 5.625H23.6719C23.8672 5.625 24.0332 5.69336 24.1699 5.83008C24.3066 5.9668 24.375 6.13281 24.375 6.32812V23.6719ZM11.25 15C11.25 16.0156 11.6211 16.8945 12.3633 17.6367C13.1055 18.3789 13.9844 18.75 15 18.75C16.0156 18.75 16.8945 18.3789 17.6367 17.6367C18.3789 16.8945 18.75 16.0156 18.75 15C18.75 13.9844 18.3789 13.1055 17.6367 12.3633C16.8945 11.6211 16.0156 11.25 15 11.25C13.9844 11.25 13.1055 11.6211 12.3633 12.3633C11.6211 13.1055 11.25 13.9844 11.25 15ZM18.75 11.25H22.5V7.5H18.75V11.25ZM20.5664 15C20.5664 16.5234 20.0195 17.832 18.9258 18.9258C17.832 20.0195 16.5234 20.5664 15 20.5664C13.4766 20.5664 12.168 20.0195 11.0742 18.9258C9.98046 17.832 9.43359 16.5234 9.43359 15C9.43359 14.7656 9.47266 14.4531 9.55078 14.0625H7.5V22.5H22.5V14.0625H20.4492C20.5273 14.4531 20.5664 14.7656 20.5664 15Z" fill="white"/>
</svg>
