<svg width="60" height="60" viewBox="0 0 60 60" fill="none" xmlns="http://www.w3.org/2000/svg">
<path d="M59 3H52V1C52 0.734784 51.8946 0.48043 51.7071 0.292893C51.5196 0.105357 51.2652 0 51 0H31C30.7348 0 30.4804 0.105357 30.2929 0.292893C30.1054 0.48043 30 0.734784 30 1V3H22C21.7348 3 21.4804 3.10536 21.2929 3.29289C21.1054 3.48043 21 3.73478 21 4H1C0.734784 4 0.48043 4.10536 0.292893 4.29289C0.105357 4.48043 0 4.73478 0 5V11C0 11.2652 0.105357 11.5196 0.292893 11.7071C0.48043 11.8946 0.734784 12 1 12H2V22H1C0.734784 22 0.48043 22.1054 0.292893 22.2929C0.105357 22.4804 0 22.7348 0 23V29C0 29.2652 0.105357 29.5196 0.292893 29.7071C0.48043 29.8946 0.734784 30 1 30H2V40H1C0.734784 40 0.48043 40.1054 0.292893 40.2929C0.105357 40.4804 0 40.7348 0 41V47C0 47.2652 0.105357 47.5196 0.292893 47.7071C0.48043 47.8946 0.734784 48 1 48H2V59C2 59.2652 2.10536 59.5196 2.29289 59.7071C2.48043 59.8946 2.73478 60 3 60H59C59.2652 60 59.5196 59.8946 59.7071 59.7071C59.8946 59.5196 60 59.2652 60 59V4C60 3.73478 59.8946 3.48043 59.7071 3.29289C59.5196 3.10536 59.2652 3 59 3ZM13 12H21V17H13V12ZM13 10V6H21V10H13ZM2 6H11V10H2V6ZM4 12H11V18C11 18.2652 11.1054 18.5196 11.2929 18.7071C11.4804 18.8946 11.7348 19 12 19H21V22H4V12ZM13 30H21V35H13V30ZM13 28V24H21V28H13ZM2 24H11V28H2V24ZM4 30H11V36C11 36.2652 11.1054 36.5196 11.2929 36.7071C11.4804 36.8946 11.7348 37 12 37H21V40H4V30ZM13 48H21V53H13V48ZM13 46V42H21V46H13ZM2 42H11V46H2V42ZM4 48H11V54C11 54.2652 11.1054 54.5196 11.2929 54.7071C11.4804 54.8946 11.7348 55 12 55H21V58H4V48ZM32 2H50V6H32V2ZM58 58H23V5H30V7C30 7.26522 30.1054 7.51957 30.2929 7.70711C30.4804 7.89464 30.7348 8 31 8H51C51.2652 8 51.5196 7.89464 51.7071 7.70711C51.8946 7.51957 52 7.26522 52 7V5H58V58Z" fill="#16CEF6"/>
<path d="M34 11H29C28.7348 11 28.4804 11.1054 28.2929 11.2929C28.1054 11.4804 28 11.7348 28 12V17C28 17.2652 28.1054 17.5196 28.2929 17.7071C28.4804 17.8946 28.7348 18 29 18H34C34.2652 18 34.5196 17.8946 34.7071 17.7071C34.8946 17.5196 35 17.2652 35 17V12C35 11.7348 34.8946 11.4804 34.7071 11.2929C34.5196 11.1054 34.2652 11 34 11ZM33 16H30V13H33V16Z" fill="#16CEF6"/>
<path d="M53 11H38V13H53V11Z" fill="#16CEF6"/>
<path d="M49 15H38V17H49V15Z" fill="#16CEF6"/>
<path d="M34 23H29C28.7348 23 28.4804 23.1054 28.2929 23.2929C28.1054 23.4804 28 23.7348 28 24V29C28 29.2652 28.1054 29.5196 28.2929 29.7071C28.4804 29.8946 28.7348 30 29 30H34C34.2652 30 34.5196 29.8946 34.7071 29.7071C34.8946 29.5196 35 29.2652 35 29V24C35 23.7348 34.8946 23.4804 34.7071 23.2929C34.5196 23.1054 34.2652 23 34 23ZM33 28H30V25H33V28Z" fill="#16CEF6"/>
<path d="M53 23H38V25H53V23Z" fill="#16CEF6"/>
<path d="M49 27H38V29H49V27Z" fill="#16CEF6"/>
<path d="M34 35H29C28.7348 35 28.4804 35.1054 28.2929 35.2929C28.1054 35.4804 28 35.7348 28 36V41C28 41.2652 28.1054 41.5196 28.2929 41.7071C28.4804 41.8946 28.7348 42 29 42H34C34.2652 42 34.5196 41.8946 34.7071 41.7071C34.8946 41.5196 35 41.2652 35 41V36C35 35.7348 34.8946 35.4804 34.7071 35.2929C34.5196 35.1054 34.2652 35 34 35ZM33 40H30V37H33V40Z" fill="#16CEF6"/>
<path d="M53 35H38V37H53V35Z" fill="#16CEF6"/>
<path d="M49 39H38V41H49V39Z" fill="#16CEF6"/>
<path d="M34 47H29C28.7348 47 28.4804 47.1054 28.2929 47.2929C28.1054 47.4804 28 47.7348 28 48V53C28 53.2652 28.1054 53.5196 28.2929 53.7071C28.4804 53.8946 28.7348 54 29 54H34C34.2652 54 34.5196 53.8946 34.7071 53.7071C34.8946 53.5196 35 53.2652 35 53V48C35 47.7348 34.8946 47.4804 34.7071 47.2929C34.5196 47.1054 34.2652 47 34 47ZM33 52H30V49H33V52Z" fill="#16CEF6"/>
<path d="M53 47H38V49H53V47Z" fill="#16CEF6"/>
<path d="M49 51H38V53H49V51Z" fill="#16CEF6"/>
</svg>
