<svg width="48" height="74" viewBox="0 0 48 74" fill="none" xmlns="http://www.w3.org/2000/svg">
<path d="M48 16.5C48 16.4 48 16.3 48 16.2C47.9 15.7 47.6 15.4 47.2 15.1C46.3 14.1 44.3 12.1 40.1 7.9L32.6 0.4C32.5 0.3 32.5 0.3 32.4 0.2C32.4 0.2 32.4 0.2 32.3 0.2C32.2 0.2 32.2 0.1 32.1 0.1H32C31.9 0.1 31.9 0.1 31.8 0C31.7 0 31.6 0 31.5 0H1.5C0.7 0 0 0.7 0 1.5V71.5C0 72.1 0.3 72.6 0.9 72.9C1.4 73.1 2.1 73 2.5 72.7L6 69.5L9.5 72.6C10.1 73.1 10.9 73.1 11.5 72.6L15 69.5L18.5 72.6C19.1 73.1 19.9 73.1 20.5 72.6L24 69.5L27.5 72.6C28.1 73.1 28.9 73.1 29.5 72.6L33 69.5L36.5 72.6C37.1 73.1 37.9 73.1 38.5 72.6L42 69.5L45.5 72.6C45.8 72.8 46.1 73 46.5 73C46.7 73 46.9 73 47.1 72.9C47.6 72.7 48 72.1 48 71.5V16.5ZM42.9 15H33V5.1C35.8 7.9 40.1 12.2 42.9 15ZM43 66.4C42.4 65.9 41.6 65.9 41 66.4L37.5 69.5L34 66.4C33.4 65.9 32.6 65.9 32 66.4L28.5 69.5L25 66.4C24.4 65.9 23.6 65.9 23 66.4L19.5 69.5L16 66.4C15.4 65.9 14.6 65.9 14 66.4L10.5 69.5L7 66.4C6.7 66.1 6.4 66 6 66C5.6 66 5.3 66.1 5 66.4L3 68.2V3H30V16.5C30 17.3 30.7 18 31.5 18H45V68.2L43 66.4ZM40.5 59.5C40.5 60.3 39.8 61 39 61H9C8.2 61 7.5 60.3 7.5 59.5C7.5 58.7 8.2 58 9 58H39C39.8 58 40.5 58.7 40.5 59.5ZM24 42H9C8.2 42 7.5 41.3 7.5 40.5C7.5 39.7 8.2 39 9 39H24C24.8 39 25.5 39.7 25.5 40.5C25.5 41.3 24.8 42 24 42ZM19 50H9C8.2 50 7.5 49.3 7.5 48.5C7.5 47.7 8.2 47 9 47H19C19.8 47 20.5 47.7 20.5 48.5C20.5 49.3 19.8 50 19 50ZM39 42H34C33.2 42 32.5 41.3 32.5 40.5C32.5 39.7 33.2 39 34 39H39C39.8 39 40.5 39.7 40.5 40.5C40.5 41.3 39.8 42 39 42ZM39 50H34C33.2 50 32.5 49.3 32.5 48.5C32.5 47.7 33.2 47 34 47H39C39.8 47 40.5 47.7 40.5 48.5C40.5 49.3 39.8 50 39 50ZM19 34H9C8.2 34 7.5 33.3 7.5 32.5C7.5 31.7 8.2 31 9 31H19C19.8 31 20.5 31.7 20.5 32.5C20.5 33.3 19.8 34 19 34ZM39 34H34C33.2 34 32.5 33.3 32.5 32.5C32.5 31.7 33.2 31 34 31H39C39.8 31 40.5 31.7 40.5 32.5C40.5 33.3 39.8 34 39 34ZM24 26H9C8.2 26 7.5 25.3 7.5 24.5C7.5 23.7 8.2 23 9 23H24C24.8 23 25.5 23.7 25.5 24.5C25.5 25.3 24.8 26 24 26ZM39 26H34C33.2 26 32.5 25.3 32.5 24.5C32.5 23.7 33.2 23 34 23H39C39.8 23 40.5 23.7 40.5 24.5C40.5 25.3 39.8 26 39 26Z" fill="#16CEF6"/>
</svg>
