<svg width="98" height="84" viewBox="0 0 98 84" fill="none" xmlns="http://www.w3.org/2000/svg">
<path d="M47.2813 19.7532C47.2781 18.9457 46.9548 18.1723 46.3822 17.6029C45.8097 17.0334 45.0346 16.7143 44.227 16.7156H41.1728C40.3652 16.7143 39.5901 17.0334 39.0176 17.6029C38.445 18.1723 38.1217 18.9457 38.1185 19.7532V22.7909C38.1217 23.5985 38.445 24.3718 39.0176 24.9413C39.5901 25.5108 40.3652 25.8299 41.1728 25.8286H44.227C45.0346 25.8299 45.8097 25.5108 46.3822 24.9413C46.9548 24.3718 47.2781 23.5985 47.2813 22.7909V19.7532ZM41.1728 22.7909V19.7532H44.227L44.2289 22.7909H41.1728Z" fill="#16CEF6"/>
<path d="M59.4983 19.7532C59.4952 18.9457 59.1719 18.1723 58.5993 17.6029C58.0267 17.0334 57.2516 16.7143 56.4441 16.7156H53.3898C52.5823 16.7143 51.8072 17.0334 51.2346 17.6029C50.662 18.1723 50.3387 18.9457 50.3356 19.7532V22.7909C50.3387 23.5985 50.662 24.3718 51.2346 24.9413C51.8072 25.5108 52.5823 25.8299 53.3898 25.8286H56.4441C57.2516 25.8299 58.0267 25.5108 58.5993 24.9413C59.1719 24.3718 59.4952 23.5985 59.4983 22.7909V19.7532ZM53.3898 22.7909V19.7532H56.4441L56.4459 22.7909H53.3898Z" fill="#16CEF6"/>
<path d="M47.2813 31.904C47.2781 31.0965 46.9548 30.3231 46.3822 29.7537C45.8097 29.1842 45.0346 28.8651 44.227 28.8663H41.1728C40.3652 28.8651 39.5901 29.1842 39.0176 29.7537C38.445 30.3231 38.1217 31.0965 38.1185 31.904V34.9417C38.1217 35.7493 38.445 36.5226 39.0176 37.0921C39.5901 37.6616 40.3652 37.9807 41.1728 37.9794H44.227C45.0346 37.9807 45.8097 37.6616 46.3822 37.0921C46.9548 36.5226 47.2781 35.7493 47.2813 34.9417V31.904ZM41.1728 34.9417V31.904H44.227L44.2289 34.9417H41.1728Z" fill="#16CEF6"/>
<path d="M59.4983 31.904C59.4952 31.0965 59.1719 30.3231 58.5993 29.7537C58.0267 29.1842 57.2516 28.8651 56.4441 28.8663H53.3898C52.5823 28.8651 51.8072 29.1842 51.2346 29.7537C50.662 30.3231 50.3387 31.0965 50.3356 31.904V34.9417C50.3387 35.7493 50.662 36.5226 51.2346 37.0921C51.8072 37.6616 52.5823 37.9807 53.3898 37.9794H56.4441C57.2516 37.9807 58.0267 37.6616 58.5993 37.0921C59.1719 36.5226 59.4952 35.7493 59.4983 34.9417V31.904ZM53.3898 34.9417V31.904H56.4441L56.4459 34.9417H53.3898Z" fill="#16CEF6"/>
<path d="M47.2813 44.0548C47.2781 43.2472 46.9548 42.4739 46.3822 41.9044C45.8097 41.3349 45.0346 41.0158 44.227 41.0171H41.1728C40.3652 41.0158 39.5901 41.3349 39.0176 41.9044C38.445 42.4739 38.1217 43.2472 38.1185 44.0548V47.0925C38.1216 47.9001 38.4449 48.6734 39.0175 49.2429C39.5901 49.8124 40.3652 50.1315 41.1728 50.1301H44.227C45.0346 50.1315 45.8097 49.8124 46.3823 49.2429C46.9549 48.6734 47.2782 47.9001 47.2813 47.0925V44.0548ZM41.1728 47.0925V44.0548H44.227L44.2289 47.0925H41.1728Z" fill="#16CEF6"/>
<path d="M59.4983 44.0548C59.4952 43.2472 59.1719 42.4739 58.5993 41.9044C58.0267 41.3349 57.2516 41.0158 56.4441 41.0171H53.3898C52.5823 41.0158 51.8072 41.3349 51.2346 41.9044C50.662 42.4739 50.3387 43.2472 50.3356 44.0548V47.0925C50.3386 47.9001 50.6619 48.6734 51.2345 49.2429C51.8071 49.8124 52.5822 50.1315 53.3898 50.1301H56.4441C57.2516 50.1315 58.0268 49.8124 58.5993 49.2429C59.1719 48.6734 59.4952 47.9001 59.4983 47.0925V44.0548ZM53.3898 47.0925V44.0548H56.4441L56.4459 47.0925H53.3898Z" fill="#16CEF6"/>
<path d="M56.4441 53.1677H53.3898C52.5822 53.1664 51.8071 53.4855 51.2345 54.055C50.6619 54.6245 50.3386 55.3979 50.3356 56.2054V59.2431C50.3386 60.0506 50.6619 60.824 51.2345 61.3935C51.8071 61.963 52.5822 62.2821 53.3898 62.2808H56.4441C57.2516 62.2821 58.0268 61.963 58.5994 61.3935C59.1719 60.824 59.4952 60.0506 59.4983 59.2431V56.2054C59.4952 55.3979 59.1719 54.6245 58.5994 54.055C58.0268 53.4855 57.2516 53.1664 56.4441 53.1677ZM53.3898 59.2431V56.2054H56.4441L56.4459 59.2431L53.3898 59.2431Z" fill="#16CEF6"/>
<path d="M15.2712 48.1023C15.2761 47.1951 15.0116 46.3069 14.5112 45.5502C14.0108 44.7935 13.297 44.2025 12.4603 43.8519C11.6236 43.5013 10.7016 43.407 9.81128 43.581C8.92093 43.755 8.10228 44.1893 7.45907 44.8291C6.81586 45.4688 6.37705 46.2851 6.19826 47.1745C6.01947 48.0639 6.10874 48.9863 6.45477 49.8249C6.80079 50.6635 7.38799 51.3805 8.14195 51.885C8.8959 52.3895 9.78266 52.6588 10.6898 52.6588C11.9012 52.6608 13.0638 52.1821 13.9227 51.3279C14.7816 50.4736 15.2665 49.3136 15.2712 48.1023ZM9.16271 48.1023C9.16108 47.7999 9.24926 47.5038 9.41606 47.2516C9.58287 46.9994 9.8208 46.8024 10.0997 46.6855C10.3786 46.5687 10.6859 46.5372 10.9827 46.5952C11.2794 46.6532 11.5523 46.798 11.7667 47.0112C11.9811 47.2245 12.1274 47.4966 12.187 47.793C12.2466 48.0895 12.2168 48.397 12.1015 48.6765C11.9861 48.956 11.7904 49.195 11.5391 49.3632C11.2878 49.5313 10.9922 49.6211 10.6898 49.6211C10.4898 49.6217 10.2917 49.5828 10.1067 49.5068C9.92171 49.4307 9.75351 49.319 9.6117 49.178C9.4699 49.0369 9.35726 48.8693 9.28022 48.6848C9.20318 48.5002 9.16325 48.3023 9.16271 48.1023Z" fill="#16CEF6"/>
<path d="M87.046 51.1401C81.1516 51.1401 76.3561 55.7252 76.3561 61.3611C76.3561 65.6123 81.6894 73.3191 84.0515 76.5236C76.4548 79.0074 64.3323 80.9624 48.7809 80.9624C44.5879 80.9624 40.6456 80.8191 36.9701 80.5631C39.4801 77.1035 44.2865 69.9508 44.2865 65.9176C44.2865 60.2818 39.4911 55.6966 33.5967 55.6966C27.7022 55.6966 22.9068 60.2817 22.9068 65.9176C22.9068 69.7002 27.133 76.2239 29.7292 79.8745C13.7895 77.9332 4.54058 73.7703 4.54058 70.5478C4.54058 68.0303 10.1884 64.9399 20.2584 62.7824C20.5537 61.6058 21.0136 60.4767 21.6245 59.4285C19.2918 59.8711 17.0895 60.3765 15.0539 60.9413C17.6582 57.2032 21.3797 51.2423 21.3797 47.6915C21.3797 42.0556 16.5843 37.4705 10.6899 37.4705C4.79542 37.4705 0 42.0556 0 47.6915C0 52.2233 6.05955 60.6812 8.11964 63.4249C3.98114 65.3731 1.48634 67.7542 1.48634 70.5478C1.48634 79.2855 25.8536 84.0001 48.7809 84.0001C63.4352 84.0001 78.6592 82.0688 87.751 78.3971C88.4443 78.2339 89.0587 77.8336 89.4883 77.2655C91.4231 74.7029 97.7358 65.9827 97.7358 61.3611C97.7358 55.7252 92.9404 51.1401 87.046 51.1401ZM3.05424 47.6915C3.05424 43.7243 6.47284 40.5082 10.6899 40.5082C14.9069 40.5082 18.3255 43.7243 18.3255 47.6915C18.3255 51.6587 10.6899 61.772 10.6899 61.772C10.6899 61.772 3.05424 51.6587 3.05424 47.6915ZM25.9611 65.9176C25.9611 61.9504 29.3797 58.7343 33.5967 58.7343C37.8137 58.7343 41.2323 61.9504 41.2323 65.9176C41.2323 69.8848 33.5967 79.9981 33.5967 79.9981C33.5967 79.9981 25.9611 69.8849 25.9611 65.9176ZM87.0655 75.4155L87.0359 75.4282C86.8238 75.1465 79.4103 65.2716 79.4103 61.3611C79.4103 57.3939 82.8289 54.1778 87.046 54.1778C91.263 54.1778 94.6816 57.3939 94.6816 61.3611C94.6816 65.2178 87.4674 74.8802 87.0655 75.4156V75.4155Z" fill="#16CEF6"/>
<path d="M87.0459 57.9749C86.1457 57.9798 85.2672 58.2511 84.5211 58.7548C83.7751 59.2585 83.1949 59.9718 82.8538 60.8048C82.5127 61.6379 82.426 62.5533 82.6046 63.4355C82.7833 64.3178 83.2192 65.1274 83.8574 65.7621C84.4956 66.3969 85.3076 66.8284 86.1908 67.0022C87.074 67.176 87.9889 67.0844 88.8201 66.7388C89.6513 66.3932 90.3614 65.8091 90.861 65.0603C91.3606 64.3115 91.6272 63.4315 91.6272 62.5314C91.6226 61.3201 91.1376 60.16 90.2787 59.3058C89.4198 58.4516 88.2572 57.9729 87.0459 57.9749ZM87.0459 64.0502C86.7458 64.0486 86.453 63.9581 86.2043 63.7902C85.9556 63.6223 85.7622 63.3846 85.6485 63.1069C85.5348 62.8292 85.5059 62.5241 85.5654 62.23C85.625 61.9359 85.7703 61.666 85.983 61.4544C86.1958 61.2428 86.4664 61.099 86.7608 61.0411C87.0553 60.9831 87.3602 61.0137 87.6373 61.1289C87.9143 61.2441 88.1511 61.4388 88.3176 61.6884C88.4841 61.938 88.573 62.2313 88.573 62.5314C88.5719 62.9353 88.4104 63.3222 88.124 63.6071C87.8376 63.8919 87.4498 64.0513 87.0459 64.0502V64.0502Z" fill="#16CEF6"/>
<path d="M44.2272 53.1677H41.1729C40.4771 53.1705 39.8035 53.4123 39.2648 53.8527C40.6004 54.4391 41.8348 55.2331 42.9222 56.2054H44.2272L44.2279 57.5257C45.1789 58.6486 45.9347 59.9233 46.4636 61.2964C46.9869 60.7405 47.2792 60.0065 47.2814 59.2431V56.2054C47.2783 55.3979 46.955 54.6245 46.3824 54.055C45.8099 53.4855 45.0347 53.1664 44.2272 53.1677Z" fill="#16CEF6"/>
<path d="M33.5966 61.772C32.6965 61.7769 31.818 62.0483 31.0719 62.5519C30.3259 63.0556 29.7457 63.7689 29.4046 64.6019C29.0635 65.435 28.9768 66.3504 29.1554 67.2326C29.334 68.1149 29.77 68.9245 30.4082 69.5592C31.0464 70.194 31.8584 70.6255 32.7416 70.7993C33.6248 70.9732 34.5397 70.8815 35.3709 70.5359C36.202 70.1903 36.9122 69.6062 37.4118 68.8574C37.9114 68.1086 38.178 67.2287 38.178 66.3285C38.1733 65.1172 37.6884 63.9571 36.8295 63.1029C35.9706 62.2487 34.808 61.7701 33.5966 61.772ZM33.5966 67.8473C33.2966 67.8457 33.0038 67.7552 32.7551 67.5873C32.5064 67.4195 32.313 67.1817 32.1993 66.904C32.0856 66.6263 32.0567 66.3212 32.1162 66.0271C32.1758 65.733 32.3211 65.4631 32.5338 65.2515C32.7466 65.04 33.0172 64.8961 33.3116 64.8382C33.606 64.7802 33.911 64.8108 34.1881 64.926C34.4651 65.0412 34.7018 65.2359 34.8684 65.4855C35.0349 65.7351 35.1238 66.0284 35.1238 66.3285C35.1227 66.7324 34.9612 67.1193 34.6748 67.4042C34.3884 67.689 34.0006 67.8484 33.5966 67.8473Z" fill="#16CEF6"/>
<path d="M64.0797 71.3939C64.4836 71.395 64.8714 71.2356 65.1578 70.9507C65.4442 70.6659 65.6057 70.279 65.6068 69.8751V60.9703C68.3609 61.2587 70.931 61.6129 73.309 62.0177C73.3196 61.0103 73.4494 60.0077 73.6955 59.0308C71.1119 58.5979 68.4004 58.2345 65.6068 57.9456V13.6779C65.6037 12.8703 65.2804 12.097 64.7078 11.5275C64.1352 10.958 63.3601 10.6389 62.5526 10.6402H61.0254V7.60252C61.0223 6.79496 60.699 6.02162 60.1264 5.45214C59.5539 4.88266 58.7788 4.56355 57.9712 4.56482H57.2076V1.52712C57.2076 1.1221 57.0468 0.733675 56.7604 0.447284C56.474 0.160893 56.0855 0 55.6805 0C55.2755 0 54.8871 0.160893 54.6007 0.447284C54.3143 0.733675 54.1534 1.1221 54.1534 1.52712V4.56482H53.3898C52.5823 4.56355 51.8072 4.88266 51.2346 5.45214C50.662 6.02162 50.3387 6.79496 50.3356 7.60252V10.6402H47.2814V7.60252C47.2782 6.79496 46.9549 6.02162 46.3823 5.45214C45.8098 4.88266 45.0347 4.56355 44.2271 4.56482H43.4635V1.52712C43.4635 1.1221 43.3027 0.733675 43.0163 0.447284C42.7299 0.160893 42.3414 0 41.9364 0C41.5314 0 41.143 0.160893 40.8566 0.447284C40.5702 0.733675 40.4093 1.1221 40.4093 1.52712V4.56482H39.6457C38.8382 4.56355 38.0631 4.88266 37.4905 5.45214C36.9179 6.02162 36.5946 6.79496 36.5915 7.60252V10.6402H35.0644C34.2568 10.6389 33.4817 10.958 32.9092 11.5275C32.3366 12.097 32.0133 12.8703 32.0101 13.6779V52.7547C33.0243 52.6333 34.0489 52.6273 35.0644 52.7368V13.6779H62.5526V69.8751C62.5537 70.279 62.7152 70.6659 63.0016 70.9507C63.288 71.2356 63.6758 71.395 64.0797 71.3939ZM44.2271 10.6402H39.6457V7.60252H44.2271V10.6402ZM57.9712 10.6402H53.3898V7.60252H57.9712V10.6402Z" fill="#16CEF6"/>
</svg>
