<svg width="58" height="86" viewBox="0 0 58 86" fill="none" xmlns="http://www.w3.org/2000/svg">
<path d="M14.3738 28.6093C14.6504 28.6093 14.9269 28.5748 15.2035 28.506L20.2505 37.7326H36.1867L41.6485 28.1961C42.1325 28.4715 42.651 28.6093 43.2041 28.6093C44.9671 28.6093 46.419 27.1633 46.419 25.4075C46.419 23.6517 44.9671 22.2057 43.2041 22.2057C41.4411 22.2057 39.9892 23.6517 39.9892 25.4075C39.9892 25.5108 39.9892 25.5796 39.9892 25.6829L32.0384 28.9535L30.1717 24.2025C30.9668 23.6173 31.4853 22.6533 31.4853 21.6205C31.4853 19.8647 30.0334 18.4187 28.2704 18.4187C26.5074 18.4187 25.0556 19.8647 25.0556 21.6205C25.0556 22.6533 25.5395 23.5828 26.3692 24.2025L24.4679 28.988L17.485 26.1305C17.5542 25.8895 17.5542 25.6829 17.5542 25.4419C17.5542 23.6861 16.1023 22.2402 14.3393 22.2402C12.5763 22.2402 11.1244 23.6861 11.1244 25.4419C11.159 27.1633 12.6108 28.6093 14.3738 28.6093ZM43.2041 23.5828C44.2066 23.5828 45.0362 24.4091 45.0362 25.4075C45.0362 26.4059 44.2066 27.2322 43.2041 27.2322C42.7201 27.2322 42.2707 27.06 41.925 26.7157L41.6139 26.4059L41.4411 25.8895C41.372 25.7173 41.3719 25.5452 41.3719 25.4075C41.3719 24.4091 42.2016 23.5828 43.2041 23.5828ZM25.2284 30.7438L28.063 23.5484L27.4754 23.273C26.8186 22.9631 26.4037 22.309 26.4037 21.6205C26.4037 20.6221 27.2334 19.7958 28.2359 19.7958C29.2384 19.7958 30.068 20.6221 30.068 21.6205C30.068 22.3434 29.6532 22.9976 28.9964 23.273L28.4087 23.5484L31.2433 30.7438L40.8534 26.819L35.3916 36.3899H21.0456L15.8949 26.9223L25.2284 30.7438ZM14.3738 23.5828C15.3763 23.5828 16.206 24.4091 16.206 25.4075C16.206 25.6829 16.1368 25.9239 16.0331 26.1993L15.7566 26.7502L15.2035 27.0256C13.9244 27.6797 12.5417 26.6813 12.5417 25.4075C12.5417 24.4091 13.3714 23.5828 14.3738 23.5828Z" fill="#16CEF6"/>
<path d="M12.4726 54.0513C11.6084 53.707 10.6059 54.1545 10.2602 55.0497L2.75882 74.7766C2.55141 75.2931 2.62054 75.8783 2.93166 76.3259C3.24278 76.7734 3.76131 77.0489 4.31441 77.0489C7.1836 77.0833 10.1565 76.7046 13.3714 75.9472C14.9961 78.5637 16.8628 80.8015 18.9024 82.5573C19.2135 82.8327 19.6283 82.9704 20.0086 82.9704C20.1468 82.9704 20.2851 82.936 20.4234 82.9015C20.9765 82.7638 21.3913 82.3851 21.5987 81.8687L30.068 59.5941C30.4137 58.699 29.9643 57.735 29.0656 57.3907C28.1668 57.0465 27.1988 57.494 26.8532 58.3891L19.3172 78.2538C18.1073 76.9456 16.9665 75.3963 15.9295 73.6405C15.3418 72.6766 14.2356 72.229 13.1294 72.5044C10.8824 73.0897 8.77376 73.434 6.76878 73.6061L13.3714 56.2546C13.7862 55.3595 13.3368 54.3611 12.4726 54.0513Z" fill="#16CEF6"/>
<path d="M53.229 80.044C53.7821 80.044 54.3006 79.7686 54.6118 79.321C54.9229 78.8735 54.992 78.2882 54.7846 77.7718L46.1424 55.0496C45.7968 54.1545 44.8288 53.7414 43.9301 54.0512C43.0313 54.3955 42.6164 55.3594 42.9276 56.2546L50.6364 76.5668C48.6314 76.3947 46.4881 76.0504 44.2757 75.4996C43.2041 75.2241 42.0633 75.7061 41.4757 76.6357C40.4386 78.357 39.2978 79.9063 38.0879 81.249L33.2138 68.4075C32.8681 67.5124 31.9002 67.0992 31.0014 67.4091C30.1026 67.7534 29.6878 68.7173 29.9989 69.6124L35.8064 84.8983C36.0138 85.4147 36.4287 85.7934 36.9817 85.9311C37.12 85.9655 37.2583 86 37.3966 86C37.8114 86 38.1917 85.8622 38.5028 85.5868C40.5423 83.831 42.409 81.5932 44.0338 78.9767C47.4215 79.6997 50.3944 80.0784 53.229 80.044Z" fill="#16CEF6"/>
<path d="M1.82548 21.9648C0.822985 22.6878 0.16618 23.7894 0.0279058 25.0288C-0.110369 26.2682 0.269886 27.4732 1.06497 28.4027C2.03289 29.5044 2.55142 30.9159 2.58599 32.3619C2.58599 33.3603 2.37857 34.2898 1.96375 35.1505C1.41065 36.2522 1.37608 37.5604 1.82548 38.6966C2.27487 39.8327 3.20822 40.7622 4.34899 41.2098C5.69716 41.7262 6.83793 42.7246 7.56387 43.9984C8.04783 44.8591 8.28981 45.7886 8.35895 46.7526C8.39352 47.992 8.98118 49.1281 9.91454 49.9199C10.8479 50.7118 12.0924 51.0905 13.3368 50.9528C14.7887 50.7806 16.2406 51.1249 17.4505 51.8823C18.2801 52.3987 18.9715 53.1217 19.4555 53.948C20.0777 55.0152 21.1148 55.7726 22.3247 56.0136C22.6358 56.0825 22.9469 56.1169 23.258 56.1169C24.1568 56.1169 25.0902 55.8415 25.8161 55.2906C26.7149 54.6709 27.7174 54.2922 28.789 54.1889C29.8606 54.2922 30.8977 54.6709 31.7619 55.2906C32.7644 56.0136 34.0434 56.2546 35.2533 56.0136C36.4633 55.7382 37.5003 55.0152 38.1225 53.948C38.6065 53.1217 39.2979 52.4331 40.1275 51.8823C41.3374 51.0905 42.8239 50.7806 44.2412 50.9528C45.4857 51.1249 46.7301 50.7462 47.6635 49.9199C48.5969 49.1281 49.1845 47.9576 49.2191 46.7182C49.2537 45.7542 49.5302 44.8247 50.0142 43.964C50.7401 42.6902 51.8463 41.6918 53.229 41.1753C54.3698 40.7278 55.3032 39.8327 55.7526 38.6621C56.202 37.526 56.1674 36.2178 55.6143 35.1161C55.1995 34.2554 54.992 33.3259 54.992 32.3275C55.0266 30.8815 55.5451 29.47 56.5131 28.3683C57.3081 27.4388 57.6884 26.1994 57.5501 24.9944C57.4118 23.755 56.755 22.6533 55.7526 21.9303C54.9575 21.3451 54.3352 20.6221 53.8859 19.7614C53.229 18.4876 53.0216 16.9728 53.3328 15.5612C53.6093 14.3563 53.3328 13.0825 52.6414 12.0841C51.9154 11.0857 50.8092 10.3971 49.5993 10.2594C48.6314 10.1217 47.7326 9.77742 46.903 9.22658C45.6931 8.40032 44.8289 7.19536 44.414 5.78383C44.0684 4.61329 43.2733 3.61489 42.1671 3.06405C41.0609 2.51321 39.7473 2.44436 38.6065 2.85749C37.7077 3.20176 36.7398 3.30504 35.7719 3.20176C34.32 3.02962 32.9718 2.3755 31.9693 1.34267C31.1397 0.481986 30.0335 0.0344275 28.8236 0C27.6483 0 26.5421 0.481986 25.7124 1.34267C24.7099 2.3755 23.3617 3.02962 21.9099 3.20176C20.9419 3.30504 19.974 3.20176 19.0752 2.85749C17.8999 2.40993 16.6209 2.47878 15.5147 3.06405C14.4085 3.61489 13.5788 4.61329 13.2677 5.78383C12.8874 7.16093 11.9887 8.40032 10.7788 9.22658C9.98368 9.77742 9.05032 10.1217 8.0824 10.2594C6.8725 10.4315 5.7663 11.0857 5.04036 12.1185C4.31442 13.1169 4.07244 14.3907 4.34899 15.5957C4.6601 17.0072 4.45269 18.4876 3.79589 19.7614C3.24279 20.6565 2.62055 21.3795 1.82548 21.9648ZM6.73422 21.3451C7.77128 19.3483 8.0824 17.0416 7.59844 14.8727C7.5293 14.494 7.66757 14.2186 7.77128 14.0809C7.87499 13.9432 8.0824 13.7022 8.46265 13.6677C9.98367 13.4612 11.3664 12.9448 12.6109 12.0841C14.4776 10.8102 15.8258 8.91673 16.448 6.7478C16.5517 6.40352 16.8283 6.19696 16.9665 6.1281C17.1048 6.05925 17.4159 5.95596 17.7962 6.09367C19.2135 6.61009 20.7 6.81665 22.221 6.64452C24.4679 6.40352 26.5766 5.3707 28.1322 3.7526C28.3742 3.51161 28.6853 3.44275 28.789 3.44275C28.9273 3.44275 29.2384 3.47718 29.4804 3.71817C31.036 5.33627 33.1447 6.36909 35.3916 6.61009C36.9126 6.78223 38.3991 6.57566 39.8164 6.05925C40.1967 5.92154 40.4732 6.02482 40.6461 6.09367C40.7843 6.16253 41.0609 6.33467 41.1646 6.71337C41.7868 8.88231 43.135 10.7758 45.0017 12.0496C46.2462 12.9103 47.6635 13.4267 49.1499 13.6333C49.5302 13.6677 49.7376 13.9087 49.8413 14.0464C49.945 14.1841 50.0833 14.4596 50.0142 14.8383C49.5302 17.0072 49.8413 19.3139 50.8784 21.3106C51.5697 22.6533 52.5722 23.7894 53.7821 24.6845C54.0933 24.9255 54.1624 25.2354 54.197 25.4075C54.2315 25.5797 54.197 25.8895 53.955 26.1649C52.4685 27.8519 51.6389 30.0552 51.6043 32.293C51.5698 33.8078 51.9154 35.2882 52.5722 36.6309C52.7451 36.9752 52.6759 37.285 52.6068 37.4572C52.5377 37.5949 52.3994 37.9047 52.0537 38.0424C49.945 38.8343 48.182 40.3835 47.0758 42.3459C46.3499 43.6541 45.9351 45.1345 45.8659 46.6149C45.8659 46.9936 45.6239 47.2346 45.5202 47.3379C45.382 47.4412 45.1054 47.6133 44.7252 47.5789C42.5128 47.3034 40.2312 47.8199 38.33 49.0248C37.0509 49.8511 36.0139 50.9183 35.2188 52.2266C35.0114 52.5364 34.7348 52.6741 34.562 52.7086C34.3891 52.743 34.078 52.7774 33.7323 52.5364C32.315 51.538 30.6557 50.9183 28.9273 50.815C28.8236 50.815 28.7544 50.815 28.6853 50.815C26.9569 50.9528 25.2976 51.538 23.8803 52.5364C23.5692 52.7774 23.2235 52.743 23.0506 52.7086C22.8778 52.6741 22.6012 52.5709 22.3938 52.2266C21.6333 50.9183 20.5962 49.8511 19.2826 49.0248C17.7271 48.0264 15.8949 47.51 14.0628 47.51C13.6825 47.51 13.2677 47.5444 12.8874 47.5789C12.5072 47.6133 12.2306 47.4412 12.0924 47.3379C11.9541 47.2346 11.7467 46.9936 11.7467 46.6149C11.6775 45.1345 11.2627 43.6541 10.5368 42.3459C9.43058 40.3835 7.66758 38.8343 5.59346 38.0424C5.24777 37.9047 5.07493 37.6293 5.04036 37.4572C4.97122 37.285 4.90208 36.9752 5.07493 36.6309C5.73173 35.2882 6.07742 33.8078 6.04285 32.293C6.00828 30.0552 5.17863 27.8863 3.69218 26.1649C3.4502 25.8895 3.4502 25.5797 3.4502 25.4075C3.48477 25.2354 3.55391 24.9255 3.86503 24.6845C5.07493 23.8239 6.04285 22.6877 6.73422 21.3451Z" fill="#16CEF6"/>
</svg>
