<svg width="163" height="46" viewBox="0 0 163 46" fill="none" xmlns="http://www.w3.org/2000/svg">
<path d="M38.9246 13.7329L21.4349 24.287C20.48 24.8901 19.2738 24.8901 18.2687 24.287L0.829253 13.7329C-0.276417 13.0796 -0.276417 11.4713 0.829253 10.818L18.3189 0.414626C19.2738 -0.138209 20.48 -0.138209 21.4349 0.414626L38.9246 10.818C40.0303 11.4713 40.0303 13.0796 38.9246 13.7329Z" fill="#16CEF6"/>
<path d="M38.9246 21.0203L34.3512 18.3064L21.4349 26.0963C20.48 26.6994 19.2738 26.6994 18.2687 26.0963L5.40271 18.3064L0.829253 21.0203C-0.276418 21.6736 -0.276418 23.2819 0.829253 23.9352L18.3189 34.4391C19.2738 35.0422 20.48 35.0422 21.4852 34.4391L38.9749 23.9352C40.0303 23.2819 40.0303 21.6736 38.9246 21.0203Z" fill="#16CEF6"/>
<path d="M38.9246 31.3231L34.3512 28.6092L21.4349 36.3489C20.48 36.952 19.2738 36.952 18.2687 36.3489L5.40271 28.559L0.829253 31.2729C-0.276418 31.9262 -0.276418 33.5345 0.829253 34.1878L18.3189 44.6917C19.2738 45.2948 20.48 45.2948 21.4852 44.6917L38.9749 34.1878C40.0303 33.5847 40.0303 31.9765 38.9246 31.3231Z" fill="#16CEF6"/>
<path d="M54.5729 31.252C53.4109 31.252 52.2839 31.098 51.1919 30.79C50.1139 30.468 49.2459 30.055 48.5879 29.551L49.7429 26.989C50.3729 27.451 51.1219 27.822 51.9899 28.102C52.8579 28.382 53.7259 28.522 54.5939 28.522C55.5599 28.522 56.2739 28.382 56.7359 28.102C57.1979 27.808 57.4289 27.423 57.4289 26.947C57.4289 26.597 57.2889 26.31 57.0089 26.086C56.7429 25.848 56.3929 25.659 55.9589 25.519C55.5389 25.379 54.9649 25.225 54.2369 25.057C53.1169 24.791 52.1999 24.525 51.4859 24.259C50.7719 23.993 50.1559 23.566 49.6379 22.978C49.1339 22.39 48.8819 21.606 48.8819 20.626C48.8819 19.772 49.1129 19.002 49.5749 18.316C50.0369 17.616 50.7299 17.063 51.6539 16.657C52.5919 16.251 53.7329 16.048 55.0769 16.048C56.0149 16.048 56.9319 16.16 57.8279 16.384C58.7239 16.608 59.5079 16.93 60.1799 17.35L59.1299 19.933C57.7719 19.163 56.4139 18.778 55.0559 18.778C54.1039 18.778 53.3969 18.932 52.9349 19.24C52.4869 19.548 52.2629 19.954 52.2629 20.458C52.2629 20.962 52.5219 21.34 53.0399 21.592C53.5719 21.83 54.3769 22.068 55.4549 22.306C56.5749 22.572 57.4919 22.838 58.2059 23.104C58.9199 23.37 59.5289 23.79 60.0329 24.364C60.5509 24.938 60.8099 25.715 60.8099 26.695C60.8099 27.535 60.5719 28.305 60.0959 29.005C59.6339 29.691 58.9339 30.237 57.9959 30.643C57.0579 31.049 55.9169 31.252 54.5729 31.252Z" fill="white"/>
<path d="M70.1905 30.454C69.8685 30.692 69.4695 30.874 68.9935 31C68.5315 31.112 68.0415 31.168 67.5235 31.168C66.1795 31.168 65.1365 30.825 64.3945 30.139C63.6665 29.453 63.3025 28.445 63.3025 27.115V22.474H61.5595V19.954H63.3025V17.203H66.5785V19.954H69.3925V22.474H66.5785V27.073C66.5785 27.549 66.6975 27.92 66.9355 28.186C67.1875 28.438 67.5375 28.564 67.9855 28.564C68.5035 28.564 68.9445 28.424 69.3085 28.144L70.1905 30.454Z" fill="white"/>
<path d="M76.5865 19.534C78.3365 19.534 79.6805 19.954 80.6185 20.794C81.5565 21.62 82.0255 22.873 82.0255 24.553V31H78.9595V29.593C78.3435 30.643 77.1955 31.168 75.5155 31.168C74.6475 31.168 73.8915 31.021 73.2475 30.727C72.6175 30.433 72.1345 30.027 71.7985 29.509C71.4625 28.991 71.2945 28.403 71.2945 27.745C71.2945 26.695 71.6865 25.869 72.4705 25.267C73.2685 24.665 74.4935 24.364 76.1455 24.364H78.7495C78.7495 23.65 78.5325 23.104 78.0985 22.726C77.6645 22.334 77.0135 22.138 76.1455 22.138C75.5435 22.138 74.9485 22.236 74.3605 22.432C73.7865 22.614 73.2965 22.866 72.8905 23.188L71.7145 20.899C72.3305 20.465 73.0655 20.129 73.9195 19.891C74.7875 19.653 75.6765 19.534 76.5865 19.534ZM76.3345 28.963C76.8945 28.963 77.3915 28.837 77.8255 28.585C78.2595 28.319 78.5675 27.934 78.7495 27.43V26.275H76.5025C75.1585 26.275 74.4865 26.716 74.4865 27.598C74.4865 28.018 74.6475 28.354 74.9695 28.606C75.3055 28.844 75.7605 28.963 76.3345 28.963Z" fill="white"/>
<path d="M90.5735 31.168C89.3695 31.168 88.2845 30.923 87.3185 30.433C86.3665 29.929 85.6175 29.236 85.0715 28.354C84.5395 27.472 84.2735 26.471 84.2735 25.351C84.2735 24.231 84.5395 23.23 85.0715 22.348C85.6175 21.466 86.3665 20.78 87.3185 20.29C88.2845 19.786 89.3695 19.534 90.5735 19.534C91.7635 19.534 92.7995 19.786 93.6815 20.29C94.5775 20.78 95.2285 21.487 95.6345 22.411L93.0935 23.776C92.5055 22.74 91.6585 22.222 90.5525 22.222C89.6985 22.222 88.9915 22.502 88.4315 23.062C87.8715 23.622 87.5915 24.385 87.5915 25.351C87.5915 26.317 87.8715 27.08 88.4315 27.64C88.9915 28.2 89.6985 28.48 90.5525 28.48C91.6725 28.48 92.5195 27.962 93.0935 26.926L95.6345 28.312C95.2285 29.208 94.5775 29.908 93.6815 30.412C92.7995 30.916 91.7635 31.168 90.5735 31.168Z" fill="white"/>
<path d="M102.29 26.569L100.715 28.123V31H97.4386V15.418H100.715V24.238L105.503 19.702H109.409L104.705 24.49L109.829 31H105.86L102.29 26.569Z" fill="white"/>
<path d="M114.935 19.03V22.915H121.739V25.645H114.935V31H111.533V16.3H122.642V19.03H114.935Z" fill="white"/>
<path d="M135.494 25.393C135.494 25.435 135.473 25.729 135.431 26.275H126.884C127.038 26.975 127.402 27.528 127.976 27.934C128.55 28.34 129.264 28.543 130.118 28.543C130.706 28.543 131.224 28.459 131.672 28.291C132.134 28.109 132.561 27.829 132.953 27.451L134.696 29.341C133.632 30.559 132.078 31.168 130.034 31.168C128.76 31.168 127.633 30.923 126.653 30.433C125.673 29.929 124.917 29.236 124.385 28.354C123.853 27.472 123.587 26.471 123.587 25.351C123.587 24.245 123.846 23.251 124.364 22.369C124.896 21.473 125.617 20.78 126.527 20.29C127.451 19.786 128.48 19.534 129.614 19.534C130.72 19.534 131.721 19.772 132.617 20.248C133.513 20.724 134.213 21.41 134.717 22.306C135.235 23.188 135.494 24.217 135.494 25.393ZM129.635 22.012C128.893 22.012 128.27 22.222 127.766 22.642C127.262 23.062 126.954 23.636 126.842 24.364H132.407C132.295 23.65 131.987 23.083 131.483 22.663C130.979 22.229 130.363 22.012 129.635 22.012Z" fill="white"/>
<path d="M148.742 25.393C148.742 25.435 148.721 25.729 148.679 26.275H140.132C140.286 26.975 140.65 27.528 141.224 27.934C141.798 28.34 142.512 28.543 143.366 28.543C143.954 28.543 144.472 28.459 144.92 28.291C145.382 28.109 145.809 27.829 146.201 27.451L147.944 29.341C146.88 30.559 145.326 31.168 143.282 31.168C142.008 31.168 140.881 30.923 139.901 30.433C138.921 29.929 138.165 29.236 137.633 28.354C137.101 27.472 136.835 26.471 136.835 25.351C136.835 24.245 137.094 23.251 137.612 22.369C138.144 21.473 138.865 20.78 139.775 20.29C140.699 19.786 141.728 19.534 142.862 19.534C143.968 19.534 144.969 19.772 145.865 20.248C146.761 20.724 147.461 21.41 147.965 22.306C148.483 23.188 148.742 24.217 148.742 25.393ZM142.883 22.012C142.141 22.012 141.518 22.222 141.014 22.642C140.51 23.062 140.202 23.636 140.09 24.364H145.655C145.543 23.65 145.235 23.083 144.731 22.663C144.227 22.229 143.611 22.012 142.883 22.012Z" fill="white"/>
<path d="M162.431 15.418V31H159.302V29.698C158.49 30.678 157.314 31.168 155.774 31.168C154.71 31.168 153.744 30.93 152.876 30.454C152.022 29.978 151.35 29.299 150.86 28.417C150.37 27.535 150.125 26.513 150.125 25.351C150.125 24.189 150.37 23.167 150.86 22.285C151.35 21.403 152.022 20.724 152.876 20.248C153.744 19.772 154.71 19.534 155.774 19.534C157.216 19.534 158.343 19.989 159.155 20.899V15.418H162.431ZM156.341 28.48C157.167 28.48 157.853 28.2 158.399 27.64C158.945 27.066 159.218 26.303 159.218 25.351C159.218 24.399 158.945 23.643 158.399 23.083C157.853 22.509 157.167 22.222 156.341 22.222C155.501 22.222 154.808 22.509 154.262 23.083C153.716 23.643 153.443 24.399 153.443 25.351C153.443 26.303 153.716 27.066 154.262 27.64C154.808 28.2 155.501 28.48 156.341 28.48Z" fill="white"/>
</svg>
