<svg width="32" height="32" viewBox="0 0 32 32" fill="none" xmlns="http://www.w3.org/2000/svg">
<path fill-rule="evenodd" clip-rule="evenodd" d="M19.069 15.2489L15.442 13.5442C15.2949 13.46 15.1634 13.4544 15.0478 13.528C14.9321 13.6017 14.8743 13.7335 14.8743 13.923V17.1115C14.8743 17.2799 14.9321 17.401 15.0478 17.4747C15.1634 17.5483 15.2949 17.5432 15.442 17.4591L19.069 15.7856C19.2372 15.7014 19.3213 15.6069 19.3213 15.5016C19.3213 15.3964 19.2372 15.3121 19.069 15.2489ZM16.4828 0C14.3381 0 12.3249 0.405189 10.4431 1.21552C8.56124 2.02585 6.92123 3.13104 5.52299 4.53071C4.12475 5.93037 3.01563 7.57207 2.19561 9.45582C1.37559 11.3396 0.965576 13.3548 0.965576 15.5016C0.965576 17.6485 1.37559 19.6637 2.19561 21.5474C3.01563 23.4312 4.12475 25.0729 5.52299 26.4725C6.92123 27.8722 8.56124 28.9825 10.4431 29.8033C12.3249 30.6242 14.3381 31.0345 16.4828 31.0345C18.6275 31.0345 20.6407 30.6242 22.5226 29.8033C24.4044 28.9825 26.0444 27.8722 27.4426 26.4725C28.8409 25.0729 29.95 23.4312 30.77 21.5474C31.5901 19.6637 32.0001 17.6485 32.0001 15.5016C32.0001 13.3548 31.5901 11.3396 30.77 9.45582C29.95 7.57207 28.8409 5.93037 27.4426 4.53071C26.0444 3.13104 24.4044 2.02585 22.5226 1.21552C20.6407 0.405189 18.6275 0 16.4828 0ZM16.4828 21.8157C12.5089 21.8157 10.1698 21.4632 9.46537 20.7581C8.761 20.053 8.4088 18.3009 8.4088 15.5016C8.4088 12.7023 8.761 10.9554 9.46537 10.2608C10.1698 9.56621 12.5089 9.21875 16.4828 9.21875C20.4568 9.21875 22.7959 9.56621 23.5003 10.2608C24.2046 10.9554 24.5568 12.7023 24.5568 15.5016C24.5568 18.3009 24.2046 20.053 23.5003 20.7581C22.7959 21.4632 20.4568 21.8157 16.4828 21.8157Z" fill="white"/>
</svg>
